# xmcd
#
# Track frame offsets:
#       150
#       24406
#       48256
#       68429
#       96637
#       126029
#       161965
#       184338
#       202560
#       236528
#       263378
#       297508
#       316420
#
# Disc length: 4622 seconds
#
# Revision: 0
# Processed by: cddbd v1.5.2PL0 Copyright (c) Steve Scherf et al.
# Submitted via: WaveLab 4.01
#
DISCID=b0120c0d
DTITLE=Vince Agwada - Eyes of the City
DYEAR=2008
DGENRE=Blues-Rock
TTITLE0=It's a Shame
TTITLE1=Blooze
TTITLE2=Does it Really Matter
TTITLE3=Car Wash Blues 
TTITLE4=I'm Coming Home
TTITLE5=Rain
TTITLE6=Confidence Man
TTITLE7=Tubed Out
TTITLE8=Hard to Cry
TTITLE9=Come on In
TTITLE10=Ellie
TTITLE11=Bottle
TTITLE12=Eyes of the City
EXTD=
EXTT0=
EXTT1=
EXTT2=
EXTT3=
EXTT4=
EXTT5=
EXTT6=
EXTT7=
EXTT8=
EXTT9=
EXTT10=
EXTT11=
EXTT12=
PLAYORDER=
